<svg xmlns="http://www.w3.org/2000/svg" width="240" height="128" viewBox="0 0 240 128" fill="none"><title>date-time-picker</title><rect x="20" y="13" width="200" height="26" rx="6" fill="#fff" stroke="#e5e5e8"/><g transform="translate(30 19)"><svg xmlns="http://www.w3.org/2000/svg" width="14" height="14" viewBox="0 0 24 24" fill="none" stroke="#20834a" stroke-width="1.8" stroke-linecap="round" stroke-linejoin="round" class="lucide lucide-calendar-days" aria-hidden="true"><path d="M8 2v3"></path><path d="M16 2v3"></path><rect x="3" y="3" width="18" height="18" rx="2"></rect><path d="M3 9h18"></path><path d="M8 13h.01"></path><path d="M12 13h.01"></path><path d="M16 13h.01"></path><path d="M8 17h.01"></path><path d="M12 17h.01"></path><path d="M16 17h.01"></path></svg></g><text x="52" y="30" fill="#202024" font-size="10" font-family="system-ui,sans-serif">2026-10-03 14:30:00</text><rect x="20" y="45" width="200" height="73" rx="6" fill="#fff" stroke="#e5e5e8"/><text x="35" y="60" fill="#202024" font-size="10" font-family="system-ui,sans-serif">October 2026</text><text x="156" y="60" fill="#20834a" font-size="9" font-family="system-ui,sans-serif">14:30:00</text><text x="34" y="83" fill="#202024" font-size="10" font-family="system-ui,sans-serif">12    13    14    15    16    17</text><text x="35" y="106" fill="#20834a" font-size="9" font-family="system-ui,sans-serif">Today</text><rect x="158" y="90" width="52" height="22" rx="5" fill="#20834a" stroke="none"/><text x="168" y="105" fill="#fff" font-size="9" font-family="system-ui,sans-serif">OK</text></svg>
