<svg xmlns="http://www.w3.org/2000/svg" width="240" height="128" viewBox="0 0 240 128" fill="none"><title>date-range-picker</title><rect x="15" y="13" width="210" height="26" rx="6" fill="#fff" stroke="#dce5de"/><g transform="translate(25 19)"><svg xmlns="http://www.w3.org/2000/svg" width="14" height="14" viewBox="0 0 24 24" fill="none" stroke="#20834a" stroke-width="1.8" stroke-linecap="round" stroke-linejoin="round" class="lucide lucide-calendar-days" aria-hidden="true"><path d="M8 2v3"></path><path d="M16 2v3"></path><rect x="3" y="3" width="18" height="18" rx="2"></rect><path d="M3 9h18"></path><path d="M8 13h.01"></path><path d="M12 13h.01"></path><path d="M16 13h.01"></path><path d="M8 17h.01"></path><path d="M12 17h.01"></path><path d="M16 17h.01"></path></svg></g><text x="46" y="30" fill="#203329" font-size="10" font-family="system-ui,sans-serif">2026-10-03  —  2026-10-15</text><rect x="15" y="45" width="210" height="73" rx="6" fill="#fff" stroke="#dce5de"/><text x="32" y="61" fill="#203329" font-size="9" font-family="system-ui,sans-serif">October 2026</text><text x="134" y="61" fill="#203329" font-size="9" font-family="system-ui,sans-serif">November 2026</text><rect x="24" y="74" width="87" height="18" rx="2" fill="#eaf4ed" stroke="none"/><rect x="128" y="74" width="87" height="18" rx="2" fill="#eaf4ed" stroke="none"/><rect x="24" y="74" width="18" height="18" rx="3" fill="#20834a" stroke="none"/><rect x="197" y="74" width="18" height="18" rx="3" fill="#20834a" stroke="none"/><text x="28" y="87" fill="#fff" font-size="8" font-family="system-ui,sans-serif">28</text><text x="46" y="87" fill="#203329" font-size="8" font-family="system-ui,sans-serif">29   30   31</text><text x="136" y="87" fill="#203329" font-size="8" font-family="system-ui,sans-serif">1     2     3</text><text x="203" y="87" fill="#fff" font-size="8" font-family="system-ui,sans-serif">4</text><text x="25" y="106" fill="#6c7c71" font-size="8" font-family="system-ui,sans-serif">24   25   26   27</text><text x="129" y="106" fill="#6c7c71" font-size="8" font-family="system-ui,sans-serif">5     6     7     8</text></svg>
